<svg width="116.65" height="71.094" viewBox="0 0 116.65 71.094" xmlns="http://www.w3.org/2000/svg"><g id="svgGroup" stroke-linecap="round" fill-rule="evenodd" font-size="9pt" stroke="#000" stroke-width="0.25mm" fill="#000" style="stroke:#000;stroke-width:0.25mm;fill:#000"><path d="M 41.797 71.094 L 20.41 40.382 L 12.354 48.927 L 12.354 71.094 L 0 71.094 L 0 0.001 L 12.354 0.001 L 12.354 33.35 L 19.189 24.903 L 39.99 0.001 L 54.932 0.001 L 28.516 31.495 L 56.445 71.094 L 41.797 71.094 Z M 103.418 71.094 L 89.16 43.702 L 75.391 43.702 L 75.391 71.094 L 63.037 71.094 L 63.037 0.001 L 88.037 0.001 A 44.118 44.118 0 0 1 95.344 0.567 Q 102.485 1.768 107.031 5.518 A 17.862 17.862 0 0 1 113.221 16.139 A 27.118 27.118 0 0 1 113.721 21.485 Q 113.721 28.614 110.278 33.424 A 20.858 20.858 0 0 1 103.59 39.388 A 26.351 26.351 0 0 1 100.684 40.821 L 116.65 70.46 L 116.65 71.094 L 103.418 71.094 Z M 75.391 9.962 L 75.391 33.79 L 88.086 33.79 A 20 20 0 0 0 91.977 33.434 Q 95.517 32.732 97.852 30.64 A 10.353 10.353 0 0 0 101.199 24.304 A 14.89 14.89 0 0 0 101.367 22.022 A 16.099 16.099 0 0 0 100.992 18.438 Q 100.426 15.958 99.005 14.159 A 9.684 9.684 0 0 0 98.12 13.184 Q 95.477 10.641 90.715 10.103 A 23.578 23.578 0 0 0 88.428 9.962 L 75.391 9.962 Z" vector-effect="non-scaling-stroke"/></g></svg>