<svg width="116.699" height="71.095" viewBox="0 0 116.699 71.095" xmlns="http://www.w3.org/2000/svg"><g id="svgGroup" stroke-linecap="round" fill-rule="evenodd" font-size="9pt" stroke="#000" stroke-width="0.25mm" fill="#000" style="stroke:#000;stroke-width:0.25mm;fill:#000"><path d="M 103.467 71.094 L 89.209 43.702 L 75.439 43.702 L 75.439 71.094 L 63.086 71.094 L 63.086 0.001 L 88.086 0.001 A 44.118 44.118 0 0 1 95.393 0.567 Q 102.533 1.768 107.08 5.518 A 17.862 17.862 0 0 1 113.269 16.139 A 27.118 27.118 0 0 1 113.77 21.485 Q 113.77 28.614 110.327 33.424 A 20.858 20.858 0 0 1 103.639 39.388 A 26.351 26.351 0 0 1 100.732 40.821 L 116.699 70.46 L 116.699 71.094 L 103.467 71.094 Z M 25.928 71.094 L 0 71.094 L 0 0.001 L 24.365 0.001 A 48.281 48.281 0 0 1 31.18 0.45 Q 34.65 0.946 37.467 1.99 A 19.969 19.969 0 0 1 42.725 4.835 Q 49.023 9.669 49.023 19.239 A 15.352 15.352 0 0 1 46.387 28.028 A 15.721 15.721 0 0 1 41.607 32.568 A 20.856 20.856 0 0 1 38.672 34.083 A 17.698 17.698 0 0 1 43.499 36.154 A 14.689 14.689 0 0 1 47.583 39.967 A 16.354 16.354 0 0 1 50.576 47.732 A 21.253 21.253 0 0 1 50.732 50.343 A 24.927 24.927 0 0 1 49.974 56.676 A 17.157 17.157 0 0 1 44.312 65.723 Q 37.891 71.094 25.928 71.094 Z M 75.439 9.962 L 75.439 33.79 L 88.135 33.79 A 20 20 0 0 0 92.025 33.434 Q 95.566 32.732 97.9 30.64 A 10.353 10.353 0 0 0 101.248 24.304 A 14.89 14.89 0 0 0 101.416 22.022 A 16.099 16.099 0 0 0 101.041 18.438 Q 100.475 15.958 99.053 14.159 A 9.684 9.684 0 0 0 98.169 13.184 Q 95.526 10.641 90.764 10.103 A 23.578 23.578 0 0 0 88.477 9.962 L 75.439 9.962 Z M 27.1 39.014 L 12.354 39.014 L 12.354 61.231 L 26.074 61.231 A 18.894 18.894 0 0 0 29.692 60.906 Q 31.801 60.494 33.45 59.561 A 10.089 10.089 0 0 0 35.156 58.35 Q 38.428 55.469 38.428 50.343 A 15.678 15.678 0 0 0 37.846 45.877 Q 35.861 39.203 27.1 39.014 Z M 12.354 9.962 L 12.354 29.932 L 24.463 29.932 A 20.547 20.547 0 0 0 27.973 29.651 Q 29.917 29.314 31.47 28.571 A 10.176 10.176 0 0 0 33.472 27.32 A 8.505 8.505 0 0 0 36.605 21.641 A 12.47 12.47 0 0 0 36.719 19.923 Q 36.719 14.649 33.716 12.305 Q 30.713 9.962 24.365 9.962 L 12.354 9.962 Z" vector-effect="non-scaling-stroke"/></g></svg>